<mxfile host="app.diagrams.net" agent="Mozilla/5.0 (Windows NT 10.0; Win64; x64) AppleWebKit/537.36 (KHTML, like Gecko) Chrome/135.0.0.0 Safari/537.36" version="26.2.8">
  <diagram name="第 1 页" id="GVWUswQuyPeesBojkQ96">
    <mxGraphModel dx="870" dy="439" grid="1" gridSize="10" guides="1" tooltips="1" connect="1" arrows="1" fold="1" page="1" pageScale="1" pageWidth="827" pageHeight="1169" math="0" shadow="0">
      <root>
        <mxCell id="0" />
        <mxCell id="1" parent="0" />
        <mxCell id="GLUU1QFi1iWbL2f7jV7O-11" value="" style="whiteSpace=wrap;html=1;aspect=fixed;" vertex="1" parent="1">
          <mxGeometry x="660" y="40" width="160" height="160" as="geometry" />
        </mxCell>
        <mxCell id="GLUU1QFi1iWbL2f7jV7O-10" value="" style="whiteSpace=wrap;html=1;aspect=fixed;" vertex="1" parent="1">
          <mxGeometry x="380" y="40" width="160" height="160" as="geometry" />
        </mxCell>
        <mxCell id="GLUU1QFi1iWbL2f7jV7O-5" value="" style="whiteSpace=wrap;html=1;aspect=fixed;" vertex="1" parent="1">
          <mxGeometry x="100" y="40" width="160" height="160" as="geometry" />
        </mxCell>
        <mxCell id="GLUU1QFi1iWbL2f7jV7O-1" value="" style="fontColor=#0066CC;verticalAlign=top;verticalLabelPosition=bottom;labelPosition=center;align=center;html=1;outlineConnect=0;fillColor=#CCCCCC;strokeColor=#6881B3;gradientColor=none;gradientDirection=north;strokeWidth=2;shape=mxgraph.networks.monitor;" vertex="1" parent="1">
          <mxGeometry x="140" y="80" width="80" height="65" as="geometry" />
        </mxCell>
        <mxCell id="GLUU1QFi1iWbL2f7jV7O-2" value="" style="fontColor=#0066CC;verticalAlign=top;verticalLabelPosition=bottom;labelPosition=center;align=center;html=1;outlineConnect=0;fillColor=#CCCCCC;strokeColor=#6881B3;gradientColor=none;gradientDirection=north;strokeWidth=2;shape=mxgraph.networks.monitor;" vertex="1" parent="1">
          <mxGeometry x="700" y="80" width="80" height="65" as="geometry" />
        </mxCell>
        <mxCell id="GLUU1QFi1iWbL2f7jV7O-3" value="" style="fontColor=#0066CC;verticalAlign=top;verticalLabelPosition=bottom;labelPosition=center;align=center;html=1;outlineConnect=0;fillColor=#CCCCCC;strokeColor=#6881B3;gradientColor=none;gradientDirection=north;strokeWidth=2;shape=mxgraph.networks.monitor;" vertex="1" parent="1">
          <mxGeometry x="420" y="80" width="80" height="65" as="geometry" />
        </mxCell>
        <mxCell id="GLUU1QFi1iWbL2f7jV7O-8" value="Attack PC&amp;nbsp;&lt;div&gt;(SSH Client)&lt;/div&gt;" style="text;html=1;align=center;verticalAlign=middle;resizable=0;points=[];autosize=1;strokeColor=none;fillColor=none;" vertex="1" parent="1">
          <mxGeometry x="130" y="150" width="90" height="40" as="geometry" />
        </mxCell>
        <mxCell id="GLUU1QFi1iWbL2f7jV7O-9" value="80" style="text;html=1;align=center;verticalAlign=middle;resizable=0;points=[];autosize=1;strokeColor=#82b366;fillColor=#d5e8d4;labelBackgroundColor=none;" vertex="1" parent="1">
          <mxGeometry x="60" y="80" width="40" height="30" as="geometry" />
        </mxCell>
        <mxCell id="GLUU1QFi1iWbL2f7jV7O-12" value="WWW Server&amp;nbsp;&lt;div&gt;(SSH Server)&lt;/div&gt;" style="text;html=1;align=center;verticalAlign=middle;resizable=0;points=[];autosize=1;strokeColor=none;fillColor=none;" vertex="1" parent="1">
          <mxGeometry x="410" y="150" width="100" height="40" as="geometry" />
        </mxCell>
        <mxCell id="GLUU1QFi1iWbL2f7jV7O-13" value="Server&amp;nbsp;" style="text;html=1;align=center;verticalAlign=middle;resizable=0;points=[];autosize=1;strokeColor=none;fillColor=none;" vertex="1" parent="1">
          <mxGeometry x="710" y="145" width="60" height="30" as="geometry" />
        </mxCell>
        <mxCell id="GLUU1QFi1iWbL2f7jV7O-14" value="&amp;nbsp; 445&amp;nbsp;" style="text;html=1;align=center;verticalAlign=middle;resizable=0;points=[];autosize=1;strokeColor=#b85450;fillColor=#f8cecc;labelBackgroundColor=none;" vertex="1" parent="1">
          <mxGeometry x="610" y="80" width="50" height="30" as="geometry" />
        </mxCell>
        <mxCell id="GLUU1QFi1iWbL2f7jV7O-15" value="3389" style="text;html=1;align=center;verticalAlign=middle;resizable=0;points=[];autosize=1;strokeColor=#b85450;fillColor=#f8cecc;labelBackgroundColor=none;" vertex="1" parent="1">
          <mxGeometry x="610" y="120" width="50" height="30" as="geometry" />
        </mxCell>
        <mxCell id="GLUU1QFi1iWbL2f7jV7O-16" value="1.1.1.1" style="text;html=1;align=center;verticalAlign=middle;resizable=0;points=[];autosize=1;strokeColor=none;fillColor=none;" vertex="1" parent="1">
          <mxGeometry x="145" y="40" width="60" height="30" as="geometry" />
        </mxCell>
        <mxCell id="GLUU1QFi1iWbL2f7jV7O-17" value="2.2.2.2" style="text;html=1;align=center;verticalAlign=middle;resizable=0;points=[];autosize=1;strokeColor=none;fillColor=none;" vertex="1" parent="1">
          <mxGeometry x="430" y="40" width="60" height="30" as="geometry" />
        </mxCell>
        <mxCell id="GLUU1QFi1iWbL2f7jV7O-18" value="3.3.3.3" style="text;html=1;align=center;verticalAlign=middle;resizable=0;points=[];autosize=1;strokeColor=none;fillColor=none;" vertex="1" parent="1">
          <mxGeometry x="710" y="40" width="60" height="30" as="geometry" />
        </mxCell>
        <mxCell id="GLUU1QFi1iWbL2f7jV7O-19" value="22" style="text;html=1;align=center;verticalAlign=middle;resizable=0;points=[];autosize=1;strokeColor=#b85450;fillColor=#f8cecc;labelBackgroundColor=none;" vertex="1" parent="1">
          <mxGeometry x="340" y="80" width="40" height="30" as="geometry" />
        </mxCell>
        <mxCell id="GLUU1QFi1iWbL2f7jV7O-21" value="" style="html=1;shadow=0;dashed=0;align=center;verticalAlign=middle;shape=mxgraph.arrows2.arrow;dy=0.67;dx=20;notch=0;" vertex="1" parent="1">
          <mxGeometry x="270" y="210" width="90" height="50" as="geometry" />
        </mxCell>
        <mxCell id="GLUU1QFi1iWbL2f7jV7O-22" value="SSH Tunnel" style="text;html=1;align=center;verticalAlign=middle;resizable=0;points=[];autosize=1;strokeColor=none;fillColor=none;" vertex="1" parent="1">
          <mxGeometry x="264" y="260" width="90" height="30" as="geometry" />
        </mxCell>
        <mxCell id="GLUU1QFi1iWbL2f7jV7O-23" value="" style="whiteSpace=wrap;html=1;aspect=fixed;" vertex="1" parent="1">
          <mxGeometry x="660" y="300" width="160" height="160" as="geometry" />
        </mxCell>
        <mxCell id="GLUU1QFi1iWbL2f7jV7O-24" value="" style="whiteSpace=wrap;html=1;aspect=fixed;" vertex="1" parent="1">
          <mxGeometry x="380" y="300" width="160" height="160" as="geometry" />
        </mxCell>
        <mxCell id="GLUU1QFi1iWbL2f7jV7O-25" value="" style="whiteSpace=wrap;html=1;aspect=fixed;" vertex="1" parent="1">
          <mxGeometry x="100" y="300" width="160" height="160" as="geometry" />
        </mxCell>
        <mxCell id="GLUU1QFi1iWbL2f7jV7O-26" value="" style="fontColor=#0066CC;verticalAlign=top;verticalLabelPosition=bottom;labelPosition=center;align=center;html=1;outlineConnect=0;fillColor=#CCCCCC;strokeColor=#6881B3;gradientColor=none;gradientDirection=north;strokeWidth=2;shape=mxgraph.networks.monitor;" vertex="1" parent="1">
          <mxGeometry x="140" y="340" width="80" height="65" as="geometry" />
        </mxCell>
        <mxCell id="GLUU1QFi1iWbL2f7jV7O-27" value="" style="fontColor=#0066CC;verticalAlign=top;verticalLabelPosition=bottom;labelPosition=center;align=center;html=1;outlineConnect=0;fillColor=#CCCCCC;strokeColor=#6881B3;gradientColor=none;gradientDirection=north;strokeWidth=2;shape=mxgraph.networks.monitor;" vertex="1" parent="1">
          <mxGeometry x="700" y="340" width="80" height="65" as="geometry" />
        </mxCell>
        <mxCell id="GLUU1QFi1iWbL2f7jV7O-28" value="" style="fontColor=#0066CC;verticalAlign=top;verticalLabelPosition=bottom;labelPosition=center;align=center;html=1;outlineConnect=0;fillColor=#CCCCCC;strokeColor=#6881B3;gradientColor=none;gradientDirection=north;strokeWidth=2;shape=mxgraph.networks.monitor;" vertex="1" parent="1">
          <mxGeometry x="420" y="340" width="80" height="65" as="geometry" />
        </mxCell>
        <mxCell id="GLUU1QFi1iWbL2f7jV7O-29" value="Attack PC&amp;nbsp;&lt;div&gt;(SSH Server)&lt;/div&gt;" style="text;html=1;align=center;verticalAlign=middle;resizable=0;points=[];autosize=1;strokeColor=none;fillColor=none;" vertex="1" parent="1">
          <mxGeometry x="130" y="410" width="90" height="40" as="geometry" />
        </mxCell>
        <mxCell id="GLUU1QFi1iWbL2f7jV7O-30" value="80" style="text;html=1;align=center;verticalAlign=middle;resizable=0;points=[];autosize=1;strokeColor=#82b366;fillColor=#d5e8d4;labelBackgroundColor=none;" vertex="1" parent="1">
          <mxGeometry x="60" y="380" width="40" height="30" as="geometry" />
        </mxCell>
        <mxCell id="GLUU1QFi1iWbL2f7jV7O-31" value="PC-01&amp;nbsp;&lt;div&gt;(SSH Clinet)&lt;/div&gt;" style="text;html=1;align=center;verticalAlign=middle;resizable=0;points=[];autosize=1;strokeColor=none;fillColor=none;" vertex="1" parent="1">
          <mxGeometry x="415" y="410" width="90" height="40" as="geometry" />
        </mxCell>
        <mxCell id="GLUU1QFi1iWbL2f7jV7O-32" value="Server&amp;nbsp;" style="text;html=1;align=center;verticalAlign=middle;resizable=0;points=[];autosize=1;strokeColor=none;fillColor=none;" vertex="1" parent="1">
          <mxGeometry x="710" y="405" width="60" height="30" as="geometry" />
        </mxCell>
        <mxCell id="GLUU1QFi1iWbL2f7jV7O-33" value="&amp;nbsp; 445&amp;nbsp;" style="text;html=1;align=center;verticalAlign=middle;resizable=0;points=[];autosize=1;strokeColor=#b85450;fillColor=#f8cecc;labelBackgroundColor=none;" vertex="1" parent="1">
          <mxGeometry x="610" y="340" width="50" height="30" as="geometry" />
        </mxCell>
        <mxCell id="GLUU1QFi1iWbL2f7jV7O-34" value="3389" style="text;html=1;align=center;verticalAlign=middle;resizable=0;points=[];autosize=1;strokeColor=#b85450;fillColor=#f8cecc;labelBackgroundColor=none;" vertex="1" parent="1">
          <mxGeometry x="610" y="380" width="50" height="30" as="geometry" />
        </mxCell>
        <mxCell id="GLUU1QFi1iWbL2f7jV7O-35" value="1.1.1.1" style="text;html=1;align=center;verticalAlign=middle;resizable=0;points=[];autosize=1;strokeColor=none;fillColor=none;" vertex="1" parent="1">
          <mxGeometry x="145" y="300" width="60" height="30" as="geometry" />
        </mxCell>
        <mxCell id="GLUU1QFi1iWbL2f7jV7O-36" value="2.2.2.2" style="text;html=1;align=center;verticalAlign=middle;resizable=0;points=[];autosize=1;strokeColor=none;fillColor=none;" vertex="1" parent="1">
          <mxGeometry x="430" y="300" width="60" height="30" as="geometry" />
        </mxCell>
        <mxCell id="GLUU1QFi1iWbL2f7jV7O-37" value="3.3.3.3" style="text;html=1;align=center;verticalAlign=middle;resizable=0;points=[];autosize=1;strokeColor=none;fillColor=none;" vertex="1" parent="1">
          <mxGeometry x="710" y="300" width="60" height="30" as="geometry" />
        </mxCell>
        <mxCell id="GLUU1QFi1iWbL2f7jV7O-39" value="" style="html=1;shadow=0;dashed=0;align=center;verticalAlign=middle;shape=mxgraph.arrows2.arrow;dy=0.67;dx=20;notch=0;direction=west;" vertex="1" parent="1">
          <mxGeometry x="270" y="470" width="90" height="50" as="geometry" />
        </mxCell>
        <mxCell id="GLUU1QFi1iWbL2f7jV7O-41" value="SSH Tunnel" style="text;html=1;align=center;verticalAlign=middle;resizable=0;points=[];autosize=1;strokeColor=none;fillColor=none;" vertex="1" parent="1">
          <mxGeometry x="270" y="530" width="90" height="30" as="geometry" />
        </mxCell>
        <mxCell id="GLUU1QFi1iWbL2f7jV7O-43" value="22" style="text;html=1;align=center;verticalAlign=middle;resizable=0;points=[];autosize=1;strokeColor=#82b366;fillColor=#d5e8d4;labelBackgroundColor=none;" vertex="1" parent="1">
          <mxGeometry x="60" y="340" width="40" height="30" as="geometry" />
        </mxCell>
        <mxCell id="GLUU1QFi1iWbL2f7jV7O-61" value="" style="whiteSpace=wrap;html=1;aspect=fixed;" vertex="1" parent="1">
          <mxGeometry x="610" y="640" width="160" height="160" as="geometry" />
        </mxCell>
        <mxCell id="GLUU1QFi1iWbL2f7jV7O-62" value="" style="whiteSpace=wrap;html=1;aspect=fixed;" vertex="1" parent="1">
          <mxGeometry x="330" y="640" width="160" height="160" as="geometry" />
        </mxCell>
        <mxCell id="GLUU1QFi1iWbL2f7jV7O-63" value="" style="whiteSpace=wrap;html=1;aspect=fixed;" vertex="1" parent="1">
          <mxGeometry x="50" y="640" width="160" height="160" as="geometry" />
        </mxCell>
        <mxCell id="GLUU1QFi1iWbL2f7jV7O-64" value="" style="fontColor=#0066CC;verticalAlign=top;verticalLabelPosition=bottom;labelPosition=center;align=center;html=1;outlineConnect=0;fillColor=#CCCCCC;strokeColor=#6881B3;gradientColor=none;gradientDirection=north;strokeWidth=2;shape=mxgraph.networks.monitor;" vertex="1" parent="1">
          <mxGeometry x="90" y="680" width="80" height="65" as="geometry" />
        </mxCell>
        <mxCell id="GLUU1QFi1iWbL2f7jV7O-65" value="" style="fontColor=#0066CC;verticalAlign=top;verticalLabelPosition=bottom;labelPosition=center;align=center;html=1;outlineConnect=0;fillColor=#CCCCCC;strokeColor=#6881B3;gradientColor=none;gradientDirection=north;strokeWidth=2;shape=mxgraph.networks.monitor;" vertex="1" parent="1">
          <mxGeometry x="650" y="680" width="80" height="65" as="geometry" />
        </mxCell>
        <mxCell id="GLUU1QFi1iWbL2f7jV7O-66" value="" style="fontColor=#0066CC;verticalAlign=top;verticalLabelPosition=bottom;labelPosition=center;align=center;html=1;outlineConnect=0;fillColor=#CCCCCC;strokeColor=#6881B3;gradientColor=none;gradientDirection=north;strokeWidth=2;shape=mxgraph.networks.monitor;" vertex="1" parent="1">
          <mxGeometry x="370" y="680" width="80" height="65" as="geometry" />
        </mxCell>
        <mxCell id="GLUU1QFi1iWbL2f7jV7O-67" value="Attack PC&amp;nbsp;&lt;div&gt;(SSH Server)&lt;/div&gt;" style="text;html=1;align=center;verticalAlign=middle;resizable=0;points=[];autosize=1;strokeColor=none;fillColor=none;" vertex="1" parent="1">
          <mxGeometry x="80" y="750" width="90" height="40" as="geometry" />
        </mxCell>
        <mxCell id="GLUU1QFi1iWbL2f7jV7O-68" value="7878" style="text;html=1;align=center;verticalAlign=middle;resizable=0;points=[];autosize=1;strokeColor=#82b366;fillColor=#d5e8d4;labelBackgroundColor=none;" vertex="1" parent="1">
          <mxGeometry y="720" width="50" height="30" as="geometry" />
        </mxCell>
        <mxCell id="GLUU1QFi1iWbL2f7jV7O-69" value="PC-01&amp;nbsp;&lt;div&gt;(SSH Clinet)&lt;/div&gt;" style="text;html=1;align=center;verticalAlign=middle;resizable=0;points=[];autosize=1;strokeColor=none;fillColor=none;" vertex="1" parent="1">
          <mxGeometry x="365" y="750" width="90" height="40" as="geometry" />
        </mxCell>
        <mxCell id="GLUU1QFi1iWbL2f7jV7O-70" value="Server&amp;nbsp;" style="text;html=1;align=center;verticalAlign=middle;resizable=0;points=[];autosize=1;strokeColor=none;fillColor=none;" vertex="1" parent="1">
          <mxGeometry x="660" y="745" width="60" height="30" as="geometry" />
        </mxCell>
        <mxCell id="GLUU1QFi1iWbL2f7jV7O-72" value="8888" style="text;html=1;align=center;verticalAlign=middle;resizable=0;points=[];autosize=1;strokeColor=#b85450;fillColor=#f8cecc;labelBackgroundColor=none;" vertex="1" parent="1">
          <mxGeometry x="560" y="680" width="50" height="30" as="geometry" />
        </mxCell>
        <mxCell id="GLUU1QFi1iWbL2f7jV7O-73" value="1.1.1.1" style="text;html=1;align=center;verticalAlign=middle;resizable=0;points=[];autosize=1;strokeColor=none;fillColor=none;" vertex="1" parent="1">
          <mxGeometry x="95" y="640" width="60" height="30" as="geometry" />
        </mxCell>
        <mxCell id="GLUU1QFi1iWbL2f7jV7O-74" value="2.2.2.2" style="text;html=1;align=center;verticalAlign=middle;resizable=0;points=[];autosize=1;strokeColor=none;fillColor=none;" vertex="1" parent="1">
          <mxGeometry x="380" y="640" width="60" height="30" as="geometry" />
        </mxCell>
        <mxCell id="GLUU1QFi1iWbL2f7jV7O-75" value="3.3.3.3" style="text;html=1;align=center;verticalAlign=middle;resizable=0;points=[];autosize=1;strokeColor=none;fillColor=none;" vertex="1" parent="1">
          <mxGeometry x="660" y="640" width="60" height="30" as="geometry" />
        </mxCell>
        <mxCell id="GLUU1QFi1iWbL2f7jV7O-76" value="" style="html=1;shadow=0;dashed=0;align=center;verticalAlign=middle;shape=mxgraph.arrows2.arrow;dy=0.67;dx=20;notch=0;direction=west;" vertex="1" parent="1">
          <mxGeometry x="220" y="810" width="90" height="50" as="geometry" />
        </mxCell>
        <mxCell id="GLUU1QFi1iWbL2f7jV7O-77" value="SSH Tunnel" style="text;html=1;align=center;verticalAlign=middle;resizable=0;points=[];autosize=1;strokeColor=none;fillColor=none;" vertex="1" parent="1">
          <mxGeometry x="220" y="870" width="90" height="30" as="geometry" />
        </mxCell>
        <mxCell id="GLUU1QFi1iWbL2f7jV7O-78" value="&amp;nbsp; 22&amp;nbsp;&amp;nbsp;" style="text;html=1;align=center;verticalAlign=middle;resizable=0;points=[];autosize=1;strokeColor=#82b366;fillColor=#d5e8d4;labelBackgroundColor=none;" vertex="1" parent="1">
          <mxGeometry y="680" width="50" height="30" as="geometry" />
        </mxCell>
      </root>
    </mxGraphModel>
  </diagram>
</mxfile>
